<svg width="26" height="26" viewBox="0 0 26 26" fill="none" xmlns="http://www.w3.org/2000/svg">
<path d="M18.6667 0.5C22.4406 0.5 25.5 3.55939 25.5 7.33333V18.6667C25.5 22.4406 22.4406 25.5 18.6667 25.5H7.33333C3.55939 25.5 0.5 22.4406 0.5 18.6667L0.5 7.33333C0.5 3.55939 3.55939 0.5 7.33333 0.5L18.6667 0.5ZM18.6667 2.83333L7.33333 2.83333C4.84806 2.83333 2.83333 4.84806 2.83333 7.33333L2.83333 18.6667C2.83333 21.152 4.84806 23.1667 7.33333 23.1667H18.6667C21.152 23.1667 23.1667 21.152 23.1667 18.6667V7.33333C23.1667 4.84806 21.152 2.83333 18.6667 2.83333ZM13 7.58333C15.9915 7.58333 18.4167 10.0085 18.4167 13C18.4167 15.9915 15.9915 18.4167 13 18.4167C10.0085 18.4167 7.58333 15.9915 7.58333 13C7.58333 10.0085 10.0085 7.58333 13 7.58333ZM13 9.91667C11.2971 9.91667 9.91667 11.2971 9.91667 13C9.91667 14.7029 11.2971 16.0833 13 16.0833C14.7029 16.0833 16.0833 14.7029 16.0833 13C16.0833 11.2971 14.7029 9.91667 13 9.91667ZM19.375 5.45833C20.0194 5.45833 20.5417 5.98067 20.5417 6.625C20.5417 7.26933 20.0194 7.79167 19.375 7.79167C18.7306 7.79167 18.2083 7.26933 18.2083 6.625C18.2083 5.98067 18.7306 5.45833 19.375 5.45833Z" fill="white" stroke="#009FE3" stroke-width="0.5"/>
</svg>
