<svg width="90" height="91" viewBox="0 0 90 91" fill="none" xmlns="http://www.w3.org/2000/svg">
<rect y="0.5" width="90" height="90" rx="45" fill="#009FE3"/>
<path d="M61.3342 33.6675C61.5453 33.8785 61.7127 34.1292 61.8269 34.4053C61.9412 34.6813 62 34.9772 62 35.2761C62 35.5749 61.9412 35.8708 61.8269 36.1468C61.7127 36.4229 61.5453 36.6736 61.3342 36.8846L40.9384 57.3325C40.7279 57.5441 40.4778 57.712 40.2025 57.8265C39.9271 57.941 39.632 58 39.3339 58C39.0358 58 38.7407 57.941 38.4653 57.8265C38.19 57.712 37.9399 57.5441 37.7294 57.3325L28.6646 48.2446C28.2391 47.8179 28 47.2393 28 46.636C28 46.0327 28.2391 45.454 28.6646 45.0274C29.0901 44.6008 29.6673 44.3611 30.2691 44.3611C30.8709 44.3611 31.448 44.6008 31.8735 45.0274L39.3339 52.5114L58.1253 33.6675C58.3358 33.4559 58.5859 33.288 58.8612 33.1735C59.1365 33.059 59.4317 33 59.7297 33C60.0278 33 60.323 33.059 60.5983 33.1735C60.8736 33.288 61.1237 33.4559 61.3342 33.6675Z" fill="white"/>
</svg>
