<svg width="24" height="40" viewBox="0 0 24 40" fill="none" xmlns="http://www.w3.org/2000/svg">
<path d="M17.1923 26.6006L19.2693 25.3993C21.6345 24.0308 22.816 23.3466 22.9744 22.3719C22.9978 22.2198 23.0051 22.0657 22.9964 21.912C22.9172 20.9308 21.7951 20.1739 19.5531 18.6602L9.19685 11.6702C5.12873 8.92439 4.19365 3.91679 7.04948 0.198486M20.8006 5.69893C20.8006 6.57422 20.4529 7.41365 19.834 8.03257C19.215 8.65149 18.3756 8.9992 17.5003 8.9992C16.625 8.9992 15.7856 8.65149 15.1667 8.03257C14.5478 7.41365 14.2001 6.57422 14.2001 5.69893C14.2001 4.82365 14.5478 3.98421 15.1667 3.36529C15.7856 2.74637 16.625 2.39866 17.5003 2.39866C18.3756 2.39866 19.215 2.74637 19.834 3.36529C20.4529 3.98421 20.8006 4.82365 20.8006 5.69893Z" stroke="#009FE3" stroke-width="2" stroke-linecap="round" stroke-linejoin="round"/>
<path d="M9.19689 11.6702C3.69644 17.1707 0.999023 32.3915 0.999023 39.8017M9.19689 11.6702C5.12876 8.92439 4.19368 3.91679 7.04951 0.198486M9.19689 11.6702L15.0186 15.5997M17.1923 26.6006L19.2693 25.3993C21.6345 24.0308 22.816 23.3466 22.9744 22.3719C22.9978 22.2198 23.0052 22.0657 22.9964 21.912C22.9172 20.9308 21.7951 20.1739 19.5531 18.6602L15.0208 15.5997C13.4951 17.5743 12.1892 19.7094 11.1264 21.967C10.1584 24.0066 9.67652 25.0253 9.76673 26.1914L3.1992 24.4004M18.6004 39.8017C16.4597 37.3045 14.2573 33.8612 12.1099 30.6886C10.6072 28.4664 9.85474 27.3531 9.76673 26.1892" stroke="#009FE3" stroke-width="2" stroke-linecap="round" stroke-linejoin="round"/>
</svg>
