<svg width="36" height="36" viewBox="0 0 36 36" fill="none" xmlns="http://www.w3.org/2000/svg">
<path fill-rule="evenodd" clip-rule="evenodd" d="M17.9052 0.083252C14.0568 0.083252 11.0418 0.0832521 8.6885 0.399919C6.28183 0.723252 4.38183 1.39992 2.89016 2.88992C1.3985 4.38159 0.723496 6.28159 0.400163 8.68992C0.0834962 11.0416 0.0834961 14.0566 0.0834961 17.9049V18.0949C0.0834961 21.9433 0.0834962 24.9583 0.400163 27.3116C0.723496 29.7183 1.40016 31.6183 2.89016 33.1099C4.38183 34.6016 6.28183 35.2766 8.69016 35.5999C10.0902 35.7882 11.7285 35.8649 13.6368 35.8966C13.7762 35.9206 13.9186 35.9223 14.0585 35.9016C15.3407 35.9144 16.6229 35.9194 17.9052 35.9166H18.0952C19.5285 35.9166 20.8485 35.9166 22.0585 35.8999C22.2056 35.9225 22.3555 35.9202 22.5018 35.8932C24.3518 35.8599 25.9435 35.7849 27.3102 35.5999C29.7185 35.2766 31.6185 34.5999 33.1102 33.1099C34.6018 31.6183 35.2768 29.7183 35.6002 27.3099C35.9168 24.9583 35.9168 21.9433 35.9168 18.0949V17.9049C35.9168 14.0566 35.9168 11.0416 35.6002 8.68825C35.2768 6.28159 34.6002 4.38159 33.1102 2.88992C31.6185 1.39825 29.7185 0.723252 27.3102 0.399919C24.9585 0.0832521 21.9435 0.083252 18.0952 0.083252H17.9052ZM23.5118 33.3699C24.6709 33.348 25.828 33.2657 26.9785 33.1232C29.1085 32.8366 30.3935 32.2899 31.3418 31.3416C32.2918 30.3916 32.8368 29.1083 33.1235 26.9766C33.4135 24.8099 33.4168 21.9633 33.4168 17.9999C33.4168 14.0366 33.4135 11.1899 33.1235 9.02325C32.8368 6.89158 32.2902 5.60659 31.3418 4.65659C30.3918 3.70825 29.1085 3.16325 26.9768 2.87659C25.8057 2.73439 24.628 2.65151 23.4485 2.62825V4.76825C23.4485 4.85492 23.4818 4.99659 23.6535 5.20159C23.8302 5.41159 24.0985 5.62159 24.4152 5.80159C26.3618 6.90492 27.6468 9.31825 27.6468 11.4849C27.647 12.6064 27.3011 13.7006 26.6563 14.6182C26.0116 15.5357 25.0994 16.232 24.0442 16.6119C22.9891 16.9918 21.8424 17.0369 20.7607 16.7409C19.679 16.445 18.7149 15.8224 18.0002 14.9583C17.2853 15.8225 16.3211 16.4451 15.2393 16.741C14.1574 17.0369 13.0106 16.9918 11.9553 16.6116C10.9001 16.2315 9.98791 15.535 9.34328 14.6171C8.69864 13.6993 8.35298 12.6049 8.3535 11.4833C8.3535 9.31659 9.63683 6.90325 11.5852 5.79992C11.9018 5.61992 12.1702 5.40992 12.3452 5.19992C12.5168 4.99492 12.5518 4.85325 12.5518 4.76658V2.62825C11.1968 2.66825 10.0352 2.74159 9.0235 2.87825C6.89183 3.16325 5.60683 3.70825 4.65683 4.65825C3.7085 5.60825 3.1635 6.89158 2.87683 9.02325C2.58683 11.1899 2.5835 14.0366 2.5835 17.9999C2.5835 21.9633 2.58683 24.8099 2.87683 26.9766C3.1635 29.1083 3.71016 30.3933 4.6585 31.3433C5.6085 32.2916 6.89183 32.8366 9.0235 33.1232C10.2156 33.2681 11.4144 33.3516 12.6152 33.3733V31.3066C12.6152 31.2199 12.5818 31.0783 12.4085 30.8733C12.1915 30.6311 11.9344 30.4282 11.6485 30.2733C9.70183 29.1716 8.41683 26.7566 8.41683 24.5899C8.417 23.4686 8.76315 22.3746 9.40805 21.4573C10.0529 20.54 10.9652 19.844 12.0202 19.4643C13.0753 19.0846 14.2219 19.0397 15.3034 19.3357C16.3849 19.6317 17.3488 20.2542 18.0635 21.1183C18.7783 20.2541 19.7423 19.6315 20.824 19.3356C21.9057 19.0396 23.0524 19.0847 24.1075 19.4646C25.1627 19.8445 26.0749 20.5408 26.7197 21.4583C27.3644 22.3759 27.7103 23.4701 27.7102 24.5916C27.7102 26.7566 26.4268 29.1716 24.4785 30.2749C24.192 30.4297 23.9344 30.6326 23.7168 30.8749C23.5468 31.0783 23.5118 31.2199 23.5118 31.3083V33.3699ZM15.1152 33.4116C16.0041 33.416 16.9657 33.4177 18.0002 33.4166C19.0824 33.4177 20.0863 33.4155 21.0118 33.4099V31.3083C21.0118 30.4683 21.3735 29.7783 21.8018 29.2683C22.2113 28.7967 22.7004 28.4006 23.2468 28.0983C24.3485 27.4749 25.2102 25.9283 25.2102 24.5899C25.1844 23.8251 24.8626 23.1003 24.3124 22.5683C23.7623 22.0364 23.0271 21.7391 22.2618 21.7391C21.4966 21.7391 20.7613 22.0364 20.2112 22.5683C19.6611 23.1003 19.3392 23.8251 19.3135 24.5899C19.3135 24.9214 19.1818 25.2394 18.9474 25.4738C18.713 25.7082 18.395 25.8399 18.0635 25.8399C17.732 25.8399 17.414 25.7082 17.1796 25.4738C16.9452 25.2394 16.8135 24.9214 16.8135 24.5899C16.8135 23.808 16.5029 23.0581 15.9499 22.5051C15.397 21.9522 14.6471 21.6416 13.8652 21.6416C13.0832 21.6416 12.3333 21.9522 11.7804 22.5051C11.2275 23.0581 10.9168 23.808 10.9168 24.5899C10.9168 25.9283 11.7785 27.4733 12.8802 28.0983C13.3702 28.3766 13.9018 28.7633 14.3252 29.2683C14.7535 29.7783 15.1152 30.4683 15.1152 31.3083V33.4116ZM15.0518 2.58992V4.76658C15.0518 5.60492 14.6885 6.29659 14.2618 6.80658C13.8522 7.27759 13.3632 7.67303 12.8168 7.97492C11.7152 8.59992 10.8535 10.1449 10.8535 11.4833C10.8535 12.2652 11.1641 13.0151 11.717 13.568C12.27 14.121 13.0199 14.4316 13.8018 14.4316C14.5838 14.4316 15.3337 14.121 15.8866 13.568C16.4395 13.0151 16.7502 12.2652 16.7502 11.4833C16.7502 11.1517 16.8819 10.8338 17.1163 10.5994C17.3507 10.3649 17.6686 10.2333 18.0002 10.2333C18.3317 10.2333 18.6496 10.3649 18.884 10.5994C19.1185 10.8338 19.2502 11.1517 19.2502 11.4833C19.2502 11.8704 19.3264 12.2538 19.4746 12.6115C19.6228 12.9692 19.8399 13.2943 20.1137 13.568C20.3875 13.8418 20.7125 14.059 21.0702 14.2072C21.4279 14.3553 21.8113 14.4316 22.1985 14.4316C22.5857 14.4316 22.9691 14.3553 23.3268 14.2072C23.6845 14.059 24.0095 13.8418 24.2833 13.568C24.5571 13.2943 24.7742 12.9692 24.9224 12.6115C25.0706 12.2538 25.1468 11.8704 25.1468 11.4833C25.1468 10.1449 24.2852 8.59992 23.1835 7.97492C22.6372 7.67303 22.1481 7.27759 21.7385 6.80658C21.3102 6.29659 20.9485 5.60659 20.9485 4.76658V2.58992C20.0418 2.58436 19.0591 2.58214 18.0002 2.58325C16.9413 2.58214 15.9579 2.58436 15.0502 2.58992" fill="#009FE3"/>
</svg>
