<svg width="34" height="32" viewBox="0 0 34 32" fill="none" xmlns="http://www.w3.org/2000/svg">
<path d="M8.43164 1.85994L7.68831 4.07494C7.41125 4.9163 6.94081 5.68099 6.31474 6.30764C5.68867 6.93429 4.92441 7.40544 4.08331 7.68327L1.84164 8.4266C1.76591 8.45114 1.69991 8.49903 1.65309 8.56341C1.60627 8.62778 1.58105 8.70534 1.58105 8.78494C1.58105 8.86454 1.60627 8.94209 1.65309 9.00647C1.69991 9.07085 1.76591 9.11874 1.84164 9.14327L4.08331 9.88827C4.91675 10.1659 5.67398 10.634 6.29486 11.2554C6.91573 11.8769 7.38315 12.6346 7.65997 13.4683L8.40331 15.7099C8.42784 15.7857 8.47573 15.8517 8.54011 15.8985C8.60448 15.9453 8.68204 15.9705 8.76164 15.9705C8.84124 15.9705 8.9188 15.9453 8.98317 15.8985C9.04755 15.8517 9.09544 15.7857 9.11997 15.7099L9.88997 13.4966C10.168 12.6635 10.6358 11.9065 11.2565 11.2852C11.8772 10.6639 12.6338 10.1954 13.4666 9.91661L15.7083 9.1716C15.784 9.14707 15.85 9.09918 15.8969 9.0348C15.9437 8.97043 15.9689 8.89287 15.9689 8.81327C15.9689 8.73367 15.9437 8.65612 15.8969 8.59174C15.85 8.52736 15.784 8.47947 15.7083 8.45494L13.495 7.68327C12.6532 7.40662 11.8884 6.93587 11.2621 6.30906C10.6359 5.68224 10.1659 4.91693 9.88997 4.07494L9.14664 1.8316C9.11926 1.75669 9.06882 1.69241 9.00256 1.648C8.93631 1.6036 8.85767 1.58137 8.77798 1.58452C8.69828 1.58767 8.62165 1.61604 8.55911 1.66553C8.49657 1.71503 8.45135 1.7831 8.42997 1.85994M21.8666 10.6616L20.8266 13.7616C20.4396 14.94 19.7811 16.0109 18.9042 16.8881C18.0273 17.7653 16.9566 18.4242 15.7783 18.8116L12.6416 19.8549C12.5359 19.8893 12.4438 19.9563 12.3784 20.0463C12.3131 20.1362 12.2779 20.2446 12.2779 20.3558C12.2779 20.467 12.3131 20.5753 12.3784 20.6653C12.4438 20.7552 12.5359 20.8222 12.6416 20.8566L15.7783 21.8999C16.9457 22.2877 18.0063 22.9427 18.8758 23.8128C19.7453 24.6829 20.3996 25.744 20.7866 26.9116L21.8283 30.0499C21.8639 30.1543 21.9313 30.2448 22.0209 30.309C22.1106 30.3731 22.2181 30.4076 22.3283 30.4076C22.4385 30.4076 22.546 30.3731 22.6357 30.309C22.7253 30.2448 22.7927 30.1543 22.8283 30.0499L23.91 26.9499C24.2981 25.783 24.9528 24.7225 25.8222 23.8525C26.6915 22.9826 27.7516 22.3272 28.9183 21.9383L32.0533 20.8966C32.159 20.8622 32.2512 20.7952 32.3165 20.7053C32.3819 20.6153 32.4171 20.507 32.4171 20.3958C32.4171 20.2846 32.3819 20.1762 32.3165 20.0863C32.2512 19.9963 32.159 19.9293 32.0533 19.8949L28.9566 18.8116C27.7781 18.4251 26.707 17.7666 25.8303 16.8892C24.9535 16.0119 24.2957 14.9404 23.91 13.7616L22.8683 10.6216C22.8287 10.5185 22.7578 10.4304 22.6656 10.3697C22.5733 10.3089 22.4643 10.2787 22.354 10.2831C22.2436 10.2875 22.1374 10.3264 22.0503 10.3943C21.9632 10.4622 21.8979 10.5557 21.8666 10.6616Z" stroke="#009FE3" stroke-width="2" stroke-linecap="round" stroke-linejoin="round"/>
</svg>
