<svg width="40" height="36" viewBox="0 0 40 36" fill="none" xmlns="http://www.w3.org/2000/svg">
<path d="M21.2502 1.75C21.2502 1.41848 21.1185 1.10054 20.8841 0.866116C20.6497 0.631696 20.3317 0.5 20.0002 0.5C19.6687 0.5 19.3508 0.631696 19.1163 0.866116C18.8819 1.10054 18.7502 1.41848 18.7502 1.75V14.8575L17.5002 15.75V9.8C17.5002 7.425 15.5752 5.5 13.2002 5.5C11.8902 5.5 10.6427 6.175 9.59273 6.98C8.51523 7.81 7.47523 8.9125 6.55273 10.0525C4.71273 12.3225 3.18523 14.9175 2.60273 16.2525C2.16273 17.265 1.62023 19.1525 1.21273 21.28C0.800227 23.4225 0.505227 25.9225 0.610227 28.1775C0.710227 30.345 1.19273 32.6525 2.70523 34.0025C4.38023 35.5025 6.76023 35.3925 9.55773 33.9925L14.0452 31.75C15.0834 31.2309 15.9565 30.4331 16.5667 29.4457C17.1769 28.4584 17.5002 27.3207 17.5002 26.16V24.25C17.5002 23.9185 17.3685 23.6005 17.1341 23.3661C16.8997 23.1317 16.5817 23 16.2502 23C15.9187 23 15.6008 23.1317 15.3663 23.3661C15.1319 23.6005 15.0002 23.9185 15.0002 24.25V26.16C15.0002 26.8568 14.806 27.5398 14.4395 28.1324C14.073 28.725 13.5486 29.2038 12.9252 29.515L8.44023 31.7575C5.99523 32.98 4.90273 32.615 4.37023 32.1375C3.67023 31.5125 3.20273 30.135 3.10773 28.0625C3.01523 26.075 3.27773 23.7875 3.66773 21.75C4.06023 19.7 4.56023 18.0225 4.89523 17.25C5.37023 16.155 6.77023 13.75 8.49523 11.625C9.35023 10.57 10.2527 9.6275 11.1177 8.9625C12.0127 8.2725 12.7152 8 13.2002 8C13.6776 8 14.1355 8.18964 14.473 8.52721C14.8106 8.86477 15.0002 9.32261 15.0002 9.8V17.535L10.5252 20.735C10.2743 20.9342 10.1094 21.2222 10.0647 21.5395C10.0199 21.8568 10.0987 22.1791 10.2848 22.44C10.4709 22.7008 10.7501 22.8802 11.0646 22.9412C11.3792 23.0021 11.7052 22.94 11.9752 22.7675L20.0002 17.035L28.0252 22.7675C28.1585 22.869 28.3108 22.9426 28.473 22.9841C28.6353 23.0255 28.8043 23.034 28.9699 23.0089C29.1355 22.9838 29.2943 22.9256 29.437 22.8379C29.5797 22.7502 29.7033 22.6347 29.8005 22.4983C29.8977 22.3619 29.9665 22.2074 30.0028 22.0439C30.0391 21.8804 30.0421 21.7113 30.0118 21.5465C29.9815 21.3818 29.9183 21.2249 29.8262 21.085C29.734 20.9452 29.6146 20.8253 29.4752 20.7325L25.0002 17.535V9.8C25.0002 9.32261 25.1899 8.86477 25.5274 8.52721C25.865 8.18964 26.3228 8 26.8002 8C27.2852 8 27.9877 8.275 28.8827 8.9625C29.7477 9.6275 30.6477 10.57 31.5077 11.6275C33.2277 13.7525 34.6277 16.155 35.1052 17.25C35.4402 18.0225 35.9402 19.7 36.3327 21.75C36.7227 23.785 36.9827 26.075 36.8927 28.0625C36.7977 30.135 36.3327 31.5125 35.6302 32.1375C35.0977 32.6125 34.0052 32.98 31.5602 31.7575L27.0727 29.515C26.4498 29.2034 25.9259 28.7245 25.5599 28.1319C25.1938 27.5393 25 26.8565 25.0002 26.16V24.25C25.0002 23.9185 24.8685 23.6005 24.6341 23.3661C24.3997 23.1317 24.0817 23 23.7502 23C23.4187 23 23.1008 23.1317 22.8663 23.3661C22.6319 23.6005 22.5002 23.9185 22.5002 24.25V26.16C22.5003 27.3207 22.8235 28.4584 23.4337 29.4457C24.044 30.4331 24.9171 31.2309 25.9552 31.75L30.4427 33.9925C33.2427 35.3925 35.6177 35.5 37.2952 34.0025C38.8077 32.6525 39.2902 30.345 39.3902 28.1775C39.4952 25.9225 39.2002 23.4225 38.7902 21.28C38.3802 19.15 37.8402 17.265 37.3952 16.25C36.8152 14.9175 35.2877 12.3225 33.4477 10.0525C32.5227 8.9125 31.4852 7.81 30.4077 6.98C29.3577 6.175 28.1102 5.5 26.8002 5.5C24.4252 5.5 22.5002 7.425 22.5002 9.8V15.75L21.2502 14.8575V1.75Z" fill="#009FE3"/>
</svg>
