<svg width="30" height="36" viewBox="0 0 30 36" fill="none" xmlns="http://www.w3.org/2000/svg">
<path fill-rule="evenodd" clip-rule="evenodd" d="M14.9999 0.333261C12.6686 0.330156 10.4147 1.16968 8.65346 2.69716C6.89224 4.22464 5.74237 6.33715 5.41572 8.64548C5.08907 10.9538 5.60764 13.3024 6.87588 15.2586C8.14412 17.2148 10.0766 18.6467 12.3172 19.2906C9.13324 19.6773 6.40257 20.8026 4.3439 22.8319C1.72524 25.4106 0.399902 29.2533 0.399902 34.2666C0.399902 34.6025 0.533354 34.9247 0.7709 35.1623C1.00845 35.3998 1.33063 35.5333 1.66657 35.5333C2.00251 35.5333 2.32469 35.3998 2.56224 35.1623C2.79978 34.9247 2.93324 34.6025 2.93324 34.2666C2.93324 29.6799 4.14124 26.5866 6.12257 24.6346C8.10657 22.6799 11.0719 21.6666 14.9999 21.6666C18.9279 21.6666 21.8932 22.6799 23.8799 24.6346C25.8586 26.5893 27.0666 29.6799 27.0666 34.2666C27.0666 34.6025 27.2 34.9247 27.4376 35.1623C27.6751 35.3998 27.9973 35.5333 28.3332 35.5333C28.6692 35.5333 28.9914 35.3998 29.2289 35.1623C29.4664 34.9247 29.5999 34.6025 29.5999 34.2666C29.5999 29.2533 28.2746 25.4133 25.6532 22.8319C23.5999 20.8053 20.8666 19.6773 17.6826 19.2906C19.9157 18.6395 21.8394 17.2053 23.1011 15.251C24.3627 13.2968 24.8778 10.9532 24.5518 8.65004C24.2259 6.34683 23.0808 4.23824 21.3265 2.71075C19.5721 1.18326 17.326 0.33919 14.9999 0.333261ZM7.86657 9.99993C7.86657 8.10805 8.61811 6.29366 9.95587 4.9559C11.2936 3.61814 13.108 2.86659 14.9999 2.86659C16.8918 2.86659 18.7062 3.61814 20.0439 4.9559C21.3817 6.29366 22.1332 8.10805 22.1332 9.99993C22.1332 11.8918 21.3817 13.7062 20.0439 15.044C18.7062 16.3817 16.8918 17.1333 14.9999 17.1333C13.108 17.1333 11.2936 16.3817 9.95587 15.044C8.61811 13.7062 7.86657 11.8918 7.86657 9.99993Z" fill="#009FE3"/>
</svg>
